<svg width="53" height="38" viewBox="0 0 53 38" fill="none" xmlns="http://www.w3.org/2000/svg">
<path fill-rule="evenodd" clip-rule="evenodd" d="M5.39979 9.67315C5.39979 7.6739 7.0425 6.05318 9.06889 6.05318H18.0829C20.8808 6.05318 21.5198 2.34753 19.1832 1.30433C18.916 1.18503 18.7126 0.936114 18.7126 0.642087C18.7126 0.238765 19.0781 -0.064624 19.4719 0.0118493L31.0488 2.26018L42.8682 5.30634C45.4434 5.73762 47.3276 7.93879 47.3276 10.5158V15.2166C47.3276 15.5701 47.6641 15.8363 48.0156 15.8363C50.4715 15.8363 52.4625 18.1961 52.4625 21.1071C52.4625 24.018 50.4715 26.3778 48.0156 26.3778C47.6641 26.3778 47.3276 26.6441 47.3276 26.9975V31.6385C47.3276 34.5568 44.9298 36.9225 41.9719 36.9225L34.8388 37.4399C29.3545 37.8377 23.849 37.8437 18.3638 37.4578L10.7555 36.9225C7.79764 36.9225 5.39979 34.5568 5.39979 31.6385V26.3778C5.39979 26.1471 5.15982 25.9853 4.93335 26.0221C4.78599 26.0461 4.62428 26.0584 4.44689 26.0584C1.99094 26.0584 0 23.6986 0 20.7876C0 17.8767 1.99094 15.5169 4.44689 15.5169C4.50545 15.5169 4.5623 15.5182 4.61749 15.5209C4.99632 15.5391 5.39979 15.2594 5.39979 14.878V9.67315ZM11.4545 11.3228C10.1311 11.3228 9.05827 12.3804 9.05827 13.6849V26.9123C9.05827 28.2169 10.1311 29.2744 11.4545 29.2744H17.8452C17.8447 29.3006 17.8444 29.3268 17.8444 29.3531C17.8444 32.5275 21.5636 35.1008 26.1514 35.1008C30.7391 35.1008 34.4583 32.5275 34.4583 29.3531C34.4583 29.3268 34.458 29.3006 34.4575 29.2744H41.008C42.3314 29.2744 43.4042 28.2169 43.4042 26.9123V13.6849C43.4042 12.3804 42.3314 11.3228 41.008 11.3228H31.3173C30.5329 11.3228 29.7981 11.7013 29.3502 12.336L28.3083 13.8124C27.3254 15.2051 25.2179 15.1526 24.3076 13.7128L23.5001 12.4356C23.0626 11.7435 22.2938 11.3228 21.4665 11.3228H11.4545ZM17.9243 24.7078C20.3505 24.7078 22.3174 22.769 22.3174 20.3773C22.3174 17.9857 20.3505 16.0469 17.9243 16.0469C15.4981 16.0469 13.5312 17.9857 13.5312 20.3773C13.5312 22.769 15.4981 24.7078 17.9243 24.7078ZM39.5702 20.3773C39.5702 22.769 37.6034 24.7078 35.1772 24.7078C32.7509 24.7078 30.7841 22.769 30.7841 20.3773C30.7841 17.9857 32.7509 16.0469 35.1772 16.0469C37.6034 16.0469 39.5702 17.9857 39.5702 20.3773Z" fill="url(#paint0_linear_68_37)"/>
<defs>
<linearGradient id="paint0_linear_68_37" x1="26.2312" y1="0" x2="26.2312" y2="37.7428" gradientUnits="userSpaceOnUse">
<stop stop-color="#5500E0"/>
<stop offset="1" stop-color="#B689FF"/>
</linearGradient>
</defs>
</svg>
