<svg width="323" height="38" viewBox="0 0 323 38" fill="none" xmlns="http://www.w3.org/2000/svg">
<path fill-rule="evenodd" clip-rule="evenodd" d="M5.39979 9.67315C5.39979 7.6739 7.0425 6.05318 9.06889 6.05318H18.0829C20.8808 6.05318 21.5198 2.34753 19.1832 1.30433C18.916 1.18503 18.7126 0.936114 18.7126 0.642087C18.7126 0.238765 19.0781 -0.064624 19.4719 0.0118493L31.0488 2.26018L42.8682 5.30634C45.4434 5.73762 47.3276 7.93879 47.3276 10.5158V15.2166C47.3276 15.5701 47.6641 15.8363 48.0156 15.8363C50.4715 15.8363 52.4625 18.1961 52.4625 21.1071C52.4625 24.018 50.4715 26.3778 48.0156 26.3778C47.6641 26.3778 47.3276 26.6441 47.3276 26.9975V31.6385C47.3276 34.5568 44.9298 36.9225 41.9719 36.9225L34.8388 37.4399C29.3545 37.8377 23.849 37.8437 18.3638 37.4578L10.7555 36.9225C7.79764 36.9225 5.39979 34.5568 5.39979 31.6385V26.3778C5.39979 26.1471 5.15982 25.9853 4.93335 26.0221C4.78599 26.0461 4.62428 26.0584 4.44689 26.0584C1.99094 26.0584 0 23.6986 0 20.7876C0 17.8767 1.99094 15.5169 4.44689 15.5169C4.50545 15.5169 4.5623 15.5182 4.61749 15.5209C4.99632 15.5391 5.39979 15.2594 5.39979 14.878V9.67315ZM11.4545 11.3228C10.1311 11.3228 9.05827 12.3804 9.05827 13.6849V26.9123C9.05827 28.2169 10.1311 29.2744 11.4545 29.2744H17.8452C17.8447 29.3006 17.8444 29.3268 17.8444 29.3531C17.8444 32.5275 21.5636 35.1008 26.1514 35.1008C30.7391 35.1008 34.4583 32.5275 34.4583 29.3531C34.4583 29.3268 34.458 29.3006 34.4575 29.2744H41.008C42.3314 29.2744 43.4042 28.2169 43.4042 26.9123V13.6849C43.4042 12.3804 42.3314 11.3228 41.008 11.3228H31.3173C30.5329 11.3228 29.7981 11.7013 29.3502 12.336L28.3083 13.8124C27.3254 15.2051 25.2179 15.1526 24.3076 13.7128L23.5001 12.4356C23.0626 11.7435 22.2938 11.3228 21.4665 11.3228H11.4545ZM17.9243 24.7078C20.3505 24.7078 22.3174 22.769 22.3174 20.3773C22.3174 17.9857 20.3505 16.0469 17.9243 16.0469C15.4981 16.0469 13.5312 17.9857 13.5312 20.3773C13.5312 22.769 15.4981 24.7078 17.9243 24.7078ZM39.5702 20.3773C39.5702 22.769 37.6034 24.7078 35.1772 24.7078C32.7509 24.7078 30.7841 22.769 30.7841 20.3773C30.7841 17.9857 32.7509 16.0469 35.1772 16.0469C37.6034 16.0469 39.5702 17.9857 39.5702 20.3773Z" fill="url(#paint0_linear_68_12)"/>
<path d="M70.1321 35.9613C67.6844 35.9613 65.446 35.5265 63.4169 34.6569C61.4201 33.7873 59.7936 32.5634 58.5375 30.9853L62.3541 27.1204C63.1271 28.2799 64.1577 29.23 65.446 29.9708C66.7343 30.7115 68.2641 31.0819 70.0355 31.0819C71.2916 31.0819 72.29 30.9048 73.0308 30.5505C73.8037 30.164 74.1902 29.5682 74.1902 28.763C74.1902 28.2477 74.0131 27.8129 73.6588 27.4586C73.3045 27.0721 72.596 26.7662 71.5331 26.5407L67.2818 25.6711C64.4798 25.0914 62.4829 24.2218 61.2912 23.0623C60.1318 21.8707 59.5521 20.3408 59.5521 18.4728C59.5521 17.1523 59.9385 15.9123 60.7115 14.7529C61.5167 13.5934 62.7084 12.6594 64.2865 11.9509C65.8647 11.2101 67.8293 10.8397 70.1804 10.8397C72.596 10.8397 74.6894 11.2262 76.4608 11.9992C78.2644 12.7399 79.6815 13.8511 80.7122 15.3326L76.7507 19.1975C76.0421 18.0702 75.1081 17.2167 73.9487 16.637C72.8214 16.0251 71.6298 15.7191 70.3737 15.7191C69.4719 15.7191 68.6989 15.8157 68.0548 16.009C67.4106 16.2022 66.9275 16.476 66.6054 16.8302C66.2834 17.1523 66.1223 17.571 66.1223 18.0863C66.1223 18.6016 66.3478 19.0525 66.7987 19.439C67.2496 19.7933 68.0709 20.0993 69.2625 20.3569L74.1902 21.3715C76.5735 21.8546 78.2805 22.6758 79.3112 23.8353C80.3418 24.9626 80.8571 26.3314 80.8571 27.9417C80.8571 29.4877 80.4384 30.8726 79.601 32.0964C78.7958 33.2881 77.5881 34.2382 75.9777 34.9468C74.3996 35.6231 72.451 35.9613 70.1321 35.9613Z" fill="white"/>
<path d="M93.1907 10.8397C95.6384 10.8397 97.7802 11.3389 99.616 12.3373C101.484 13.3358 102.933 14.769 103.964 16.637C105.027 18.505 105.558 20.7595 105.558 23.4005C105.558 26.0093 105.027 28.2638 103.964 30.164C102.933 32.032 101.484 33.4652 99.616 34.4637C97.7802 35.4621 95.6384 35.9613 93.1907 35.9613C90.7752 35.9613 88.6334 35.4621 86.7654 34.4637C84.8973 33.4652 83.4319 32.032 82.3691 30.164C81.3385 28.2638 80.8231 26.0093 80.8231 23.4005C80.8231 20.7595 81.3385 18.505 82.3691 16.637C83.4319 14.769 84.8973 13.3358 86.7654 12.3373C88.6334 11.3389 90.7752 10.8397 93.1907 10.8397ZM93.1907 15.7674C91.9668 15.7674 90.9201 16.0573 90.0505 16.637C89.2131 17.1845 88.569 18.0219 88.1181 19.1492C87.6672 20.2764 87.4417 21.6935 87.4417 23.4005C87.4417 25.1075 87.6672 26.5246 88.1181 27.6519C88.569 28.7791 89.2131 29.6326 90.0505 30.2123C90.9201 30.7598 91.9668 31.0336 93.1907 31.0336C94.3824 31.0336 95.3969 30.7598 96.2343 30.2123C97.1039 29.6326 97.7641 28.7791 98.215 27.6519C98.6659 26.5246 98.8914 25.1075 98.8914 23.4005C98.8914 21.6935 98.6659 20.2764 98.215 19.1492C97.7641 18.0219 97.1039 17.1845 96.2343 16.637C95.3969 16.0573 94.3824 15.7674 93.1907 15.7674Z" fill="white"/>
<path d="M115.637 35.9613C114.027 35.9613 112.578 35.6714 111.289 35.0917C110.001 34.512 108.971 33.5941 108.198 32.338C107.457 31.0497 107.086 29.391 107.086 27.362V11.3228H113.705V25.7677C113.705 27.6358 114.092 28.9401 114.864 29.6809C115.637 30.3895 116.749 30.7437 118.198 30.7437C118.874 30.7437 119.535 30.631 120.179 30.4056C120.823 30.1479 121.386 29.7614 121.87 29.2461C122.385 28.7308 122.787 28.0705 123.077 27.2654C123.367 26.428 123.512 25.4457 123.512 24.3184V11.3228H130.131V35.4782H124.237L123.995 31.2752C123.19 32.8855 122.079 34.0772 120.662 34.8502C119.277 35.5909 117.602 35.9613 115.637 35.9613Z" fill="white"/>
<path d="M142.893 35.9613C140.445 35.9613 138.206 35.5265 136.177 34.6569C134.181 33.7873 132.554 32.5634 131.298 30.9853L135.115 27.1204C135.888 28.2799 136.918 29.23 138.206 29.9708C139.495 30.7115 141.025 31.0819 142.796 31.0819C144.052 31.0819 145.051 30.9048 145.791 30.5505C146.564 30.164 146.951 29.5682 146.951 28.763C146.951 28.2477 146.774 27.8129 146.419 27.4586C146.065 27.0721 145.356 26.7662 144.294 26.5407L140.042 25.6711C137.24 25.0914 135.243 24.2218 134.052 23.0623C132.892 21.8707 132.313 20.3408 132.313 18.4728C132.313 17.1523 132.699 15.9123 133.472 14.7529C134.277 13.5934 135.469 12.6594 137.047 11.9509C138.625 11.2101 140.59 10.8397 142.941 10.8397C145.356 10.8397 147.45 11.2262 149.221 11.9992C151.025 12.7399 152.442 13.8511 153.473 15.3326L149.511 19.1975C148.803 18.0702 147.869 17.2167 146.709 16.637C145.582 16.0251 144.39 15.7191 143.134 15.7191C142.232 15.7191 141.459 15.8157 140.815 16.009C140.171 16.2022 139.688 16.476 139.366 16.8302C139.044 17.1523 138.883 17.571 138.883 18.0863C138.883 18.6016 139.108 19.0525 139.559 19.439C140.01 19.7933 140.831 20.0993 142.023 20.3569L146.951 21.3715C149.334 21.8546 151.041 22.6758 152.072 23.8353C153.102 24.9626 153.618 26.3314 153.618 27.9417C153.618 29.4877 153.199 30.8726 152.362 32.0964C151.556 33.2881 150.349 34.2382 148.738 34.9468C147.16 35.6231 145.212 35.9613 142.893 35.9613Z" fill="white"/>
<path d="M168.799 20.0671C168.799 18.6822 168.397 17.6032 167.592 16.8302C166.819 16.0573 165.788 15.6708 164.5 15.6708C163.308 15.6708 162.261 15.9768 161.359 16.5887C160.458 17.2006 159.797 18.2152 159.379 19.6323L153.726 17.8931C154.274 15.7674 155.466 14.0604 157.301 12.7721C159.169 11.4839 161.665 10.8397 164.789 10.8397C166.915 10.8397 168.767 11.1779 170.345 11.8542C171.923 12.4984 173.147 13.4807 174.017 14.8012C174.919 16.1217 175.37 17.7804 175.37 19.7772V29.5843C175.37 30.8082 175.949 31.4201 177.109 31.4201C177.656 31.4201 178.172 31.3396 178.655 31.1785L178.268 35.285C177.431 35.7036 176.384 35.913 175.128 35.913C174.001 35.913 172.986 35.7197 172.084 35.3333C171.183 34.9468 170.474 34.3671 169.959 33.5941C169.443 32.7889 169.186 31.7905 169.186 30.5988V30.4056L170.345 30.2123C170.152 31.4362 169.621 32.4829 168.751 33.3525C167.881 34.1899 166.819 34.8341 165.562 35.285C164.339 35.7359 163.066 35.9613 161.746 35.9613C160.103 35.9613 158.686 35.7198 157.495 35.2366C156.303 34.7213 155.385 33.9806 154.741 33.0144C154.097 32.0481 153.775 30.8565 153.775 29.4394C153.775 27.6358 154.354 26.1703 155.514 25.0431C156.673 23.8836 158.332 23.0945 160.49 22.6758L169.572 20.84L169.524 24.9465L163.727 26.1059C162.632 26.3314 161.794 26.6373 161.214 27.0238C160.667 27.3781 160.393 27.9739 160.393 28.8113C160.393 29.6165 160.683 30.2284 161.263 30.6471C161.875 31.0658 162.599 31.2752 163.437 31.2752C164.113 31.2752 164.773 31.1946 165.418 31.0336C166.062 30.8726 166.641 30.6149 167.157 30.2606C167.672 29.9064 168.075 29.4233 168.364 28.8113C168.654 28.1994 168.799 27.4586 168.799 26.589V20.0671Z" fill="white"/>
<path d="M188.569 35.9613C186.121 35.9613 183.883 35.5265 181.854 34.6569C179.857 33.7873 178.23 32.5634 176.974 30.9853L180.791 27.1204C181.564 28.2799 182.594 29.23 183.883 29.9708C185.171 30.7115 186.701 31.0819 188.472 31.0819C189.728 31.0819 190.727 30.9048 191.468 30.5505C192.241 30.164 192.627 29.5682 192.627 28.763C192.627 28.2477 192.45 27.8129 192.096 27.4586C191.741 27.0721 191.033 26.7662 189.97 26.5407L185.719 25.6711C182.917 25.0914 180.92 24.2218 179.728 23.0623C178.569 21.8707 177.989 20.3408 177.989 18.4728C177.989 17.1523 178.375 15.9123 179.148 14.7529C179.954 13.5934 181.145 12.6594 182.723 11.9509C184.301 11.2101 186.266 10.8397 188.617 10.8397C191.033 10.8397 193.126 11.2262 194.898 11.9992C196.701 12.7399 198.118 13.8511 199.149 15.3326L195.188 19.1975C194.479 18.0702 193.545 17.2167 192.385 16.637C191.258 16.0251 190.067 15.7191 188.81 15.7191C187.909 15.7191 187.136 15.8157 186.492 16.009C185.847 16.2022 185.364 16.476 185.042 16.8302C184.72 17.1523 184.559 17.571 184.559 18.0863C184.559 18.6016 184.785 19.0525 185.235 19.439C185.686 19.7933 186.508 20.0993 187.699 20.3569L192.627 21.3715C195.01 21.8546 196.717 22.6758 197.748 23.8353C198.779 24.9626 199.294 26.3314 199.294 27.9417C199.294 29.4877 198.875 30.8726 198.038 32.0964C197.233 33.2881 196.025 34.2382 194.415 34.9468C192.836 35.6231 190.888 35.9613 188.569 35.9613Z" fill="white"/>
<path d="M211.609 35.4782V11.3228H217.551L217.793 15.6708C218.598 14.0604 219.693 12.8527 221.078 12.0475C222.495 11.2423 224.057 10.8397 225.764 10.8397C227.503 10.8397 229.065 11.2423 230.45 12.0475C231.867 12.8527 232.93 14.0443 233.639 15.6225C234.154 14.5596 234.846 13.6739 235.716 12.9654C236.586 12.2568 237.552 11.7254 238.615 11.3711C239.678 11.0169 240.757 10.8397 241.852 10.8397C243.43 10.8397 244.863 11.1618 246.151 11.8059C247.472 12.4501 248.518 13.4163 249.291 14.7046C250.064 15.9929 250.451 17.6354 250.451 19.6323V35.4782H243.832V20.9367C243.832 19.1653 243.446 17.9092 242.673 17.1684C241.9 16.4277 240.901 16.0573 239.678 16.0573C238.711 16.0573 237.81 16.2988 236.972 16.7819C236.167 17.265 235.523 17.9897 235.04 18.9559C234.589 19.8899 234.363 21.0655 234.363 22.4826V35.4782H227.745V20.9367C227.745 19.1653 227.342 17.9092 226.537 17.1684C225.764 16.4277 224.766 16.0573 223.542 16.0573C222.704 16.0573 221.867 16.2827 221.03 16.7336C220.224 17.1845 219.548 17.8931 219.001 18.8593C218.485 19.8255 218.228 21.0977 218.228 22.6758V35.4782H211.609Z" fill="white"/>
<path d="M256.746 7.84445C255.361 7.84445 254.331 7.55458 253.654 6.97485C252.978 6.36292 252.64 5.47722 252.64 4.31776C252.64 3.1261 252.978 2.2404 253.654 1.66067C254.331 1.04874 255.361 0.742767 256.746 0.742767C258.131 0.742767 259.162 1.04874 259.838 1.66067C260.515 2.2404 260.853 3.1261 260.853 4.31776C260.853 5.47722 260.515 6.36292 259.838 6.97485C259.162 7.55458 258.131 7.84445 256.746 7.84445ZM260.031 11.3228V35.4782H253.413V11.3228H260.031Z" fill="white"/>
<path d="M272.313 35.9613C270.317 35.9613 268.529 35.4621 266.951 34.4637C265.405 33.4652 264.181 32.032 263.279 30.164C262.41 28.296 261.975 26.0576 261.975 23.4488C261.975 20.7756 262.442 18.505 263.376 16.637C264.31 14.7368 265.566 13.3036 267.144 12.3373C268.754 11.3389 270.558 10.8397 272.555 10.8397C274.681 10.8397 276.436 11.4516 277.821 12.6755C279.206 13.8994 280.108 15.4775 280.526 17.41L279.898 18.1829V0.742767H286.517V35.4782H280.575L280.14 28.135L280.961 28.5215C280.736 30.0352 280.22 31.3557 279.415 32.4829C278.61 33.578 277.595 34.4315 276.371 35.0434C275.148 35.6553 273.795 35.9613 272.313 35.9613ZM274.246 30.8887C275.405 30.8887 276.404 30.5988 277.241 30.0191C278.078 29.4071 278.723 28.5215 279.173 27.362C279.657 26.2025 279.898 24.8176 279.898 23.2073C279.898 21.6613 279.673 20.3569 279.222 19.2941C278.771 18.1991 278.127 17.3617 277.289 16.7819C276.452 16.2022 275.47 15.9123 274.342 15.9123C272.539 15.9123 271.122 16.5565 270.091 17.8448C269.093 19.1009 268.593 20.9528 268.593 23.4005C268.593 25.8483 269.093 27.7163 270.091 29.0046C271.089 30.2606 272.474 30.8887 274.246 30.8887Z" fill="white"/>
<path d="M292.94 7.84445C291.555 7.84445 290.524 7.55458 289.848 6.97485C289.172 6.36292 288.833 5.47722 288.833 4.31776C288.833 3.1261 289.172 2.2404 289.848 1.66067C290.524 1.04874 291.555 0.742767 292.94 0.742767C294.325 0.742767 295.355 1.04874 296.032 1.66067C296.708 2.2404 297.046 3.1261 297.046 4.31776C297.046 5.47722 296.708 6.36292 296.032 6.97485C295.355 7.55458 294.325 7.84445 292.94 7.84445ZM296.225 11.3228V35.4782H289.606V11.3228H296.225Z" fill="white"/>
<path d="M313.145 20.0671C313.145 18.6822 312.742 17.6032 311.937 16.8302C311.164 16.0573 310.133 15.6708 308.845 15.6708C307.653 15.6708 306.607 15.9768 305.705 16.5887C304.803 17.2006 304.143 18.2152 303.724 19.6323L298.072 17.8931C298.619 15.7674 299.811 14.0604 301.647 12.7721C303.515 11.4839 306.011 10.8397 309.135 10.8397C311.26 10.8397 313.112 11.1779 314.691 11.8542C316.269 12.4984 317.493 13.4807 318.362 14.8012C319.264 16.1217 319.715 17.7804 319.715 19.7772V29.5843C319.715 30.8082 320.295 31.4201 321.454 31.4201C322.002 31.4201 322.517 31.3396 323 31.1785L322.614 35.285C321.776 35.7036 320.729 35.913 319.473 35.913C318.346 35.913 317.332 35.7197 316.43 35.3333C315.528 34.9468 314.819 34.3671 314.304 33.5941C313.789 32.7889 313.531 31.7905 313.531 30.5988V30.4056L314.691 30.2123C314.497 31.4362 313.966 32.4829 313.096 33.3525C312.227 34.1899 311.164 34.8341 309.908 35.285C308.684 35.7359 307.412 35.9613 306.091 35.9613C304.449 35.9613 303.032 35.7198 301.84 35.2366C300.648 34.7213 299.73 33.9806 299.086 33.0144C298.442 32.0481 298.12 30.8565 298.12 29.4394C298.12 27.6358 298.7 26.1703 299.859 25.0431C301.019 23.8836 302.677 23.0945 304.835 22.6758L313.918 20.84L313.869 24.9465L308.072 26.1059C306.977 26.3314 306.14 26.6373 305.56 27.0238C305.012 27.3781 304.739 27.9739 304.739 28.8113C304.739 29.6165 305.028 30.2284 305.608 30.6471C306.22 31.0658 306.945 31.2752 307.782 31.2752C308.458 31.2752 309.119 31.1946 309.763 31.0336C310.407 30.8726 310.987 30.6149 311.502 30.2606C312.017 29.9064 312.42 29.4233 312.71 28.8113C313 28.1994 313.145 27.4586 313.145 26.589V20.0671Z" fill="white"/>
<defs>
<linearGradient id="paint0_linear_68_12" x1="26.2312" y1="0" x2="26.2312" y2="37.7428" gradientUnits="userSpaceOnUse">
<stop stop-color="#5500E0"/>
<stop offset="1" stop-color="#B689FF"/>
</linearGradient>
</defs>
</svg>
